<?xml version="1.0" encoding="utf-8"?>
<!-- Generator: Adobe Illustrator 16.0.0, SVG Export Plug-In . SVG Version: 6.00 Build 0)  -->
<!DOCTYPE svg PUBLIC "-//W3C//DTD SVG 1.1//EN" "http://www.w3.org/Graphics/SVG/1.1/DTD/svg11.dtd">
<svg version="1.1" xmlns="http://www.w3.org/2000/svg" xmlns:xlink="http://www.w3.org/1999/xlink" x="0px" y="0px" width="612px"
	 height="612px" viewBox="0 0 612 612" enable-background="new 0 0 612 612" xml:space="preserve">
<g id="Слой_2">
	<rect fill="#161A2D" width="306" height="306"/>
	<rect x="306" y="306" fill="#161A2D" width="306" height="306"/>
	<rect y="306" fill="#7C388C" width="306" height="306"/>
	<rect x="306" fill="#1D2035" width="306" height="306"/>
	
		<text transform="matrix(1 0 0 1 95.7847 203.3521)" display="none" fill="#CBD1D9" font-family="'MyriadPro-Regular'" font-size="192">+</text>
</g>
<g id="Слой_3">
	<g>
		<rect x="85.541" y="145.088" fill="#CBD1D9" width="134.919" height="15.823"/>
		<rect x="145.088" y="85.541" fill="#CBD1D9" width="15.823" height="134.919"/>
	</g>
	<g>
		
			<rect x="391.541" y="145.088" transform="matrix(0.7071 -0.7071 0.7071 0.7071 26.2495 369.3725)" fill="#CBD1D9" width="134.919" height="15.824"/>
		
			<rect x="391.541" y="145.088" transform="matrix(-0.7071 -0.7071 0.7071 -0.7071 675.3768 585.7483)" fill="#CBD1D9" width="134.919" height="15.824"/>
	</g>
	<rect x="391.54" y="451.088" fill="#CBD1D9" width="134.92" height="15.824"/>
	<g>
		<rect x="85.541" y="418.933" fill="#CBD1D9" width="134.919" height="15.823"/>
		<rect x="85.541" y="483.245" fill="#CBD1D9" width="134.919" height="15.822"/>
	</g>
</g>
<g id="Capa_1" display="none">
	<g display="inline">
		<g>
			<g>
				<path fill="#7C388C" d="M242.857,296.286H48.571C21.789,296.286,0,274.497,0,247.714V53.429C0,26.646,21.789,4.857,48.571,4.857
					h194.286c26.783,0,48.572,21.789,48.572,48.571v194.286C291.429,274.497,269.64,296.286,242.857,296.286z M48.571,24.286
					c-16.067,0-29.143,13.076-29.143,29.143v194.286c0,16.067,13.075,29.143,29.143,29.143h194.286
					c16.068,0,29.143-13.076,29.143-29.143V53.429c0-16.066-13.075-29.143-29.143-29.143H48.571z"/>
			</g>
			<g>
				<path fill="#7C388C" d="M233.143,150.571H68c-5.372,0-9.714-4.342-9.714-9.714s4.342-9.714,9.714-9.714h165.143
					c5.372,0,9.714,4.342,9.714,9.714S238.515,150.571,233.143,150.571z"/>
			</g>
			<g>
				<path fill="#7C388C" d="M145.714,238c-5.372,0-9.714-4.342-9.714-9.714V63.143c0-5.372,4.342-9.714,9.714-9.714
					s9.714,4.342,9.714,9.714v165.143C155.429,233.658,151.086,238,145.714,238z"/>
			</g>
			<g>
				<path fill="#7C388C" d="M563.429,296.286H369.143c-26.781,0-48.57-21.789-48.57-48.571V53.429
					c0-26.782,21.789-48.571,48.57-48.571h194.286C590.211,4.857,612,26.646,612,53.429v194.286
					C612,274.497,590.211,296.286,563.429,296.286z M369.143,24.286C353.075,24.286,340,37.361,340,53.429v194.286
					c0,16.067,13.075,29.143,29.143,29.143h194.286c16.067,0,29.144-13.076,29.144-29.143V53.429
					c0-16.066-13.075-29.143-29.144-29.143H369.143z"/>
			</g>
			<g>
				<path fill="#7C388C" d="M529.146,211.432c-2.486,0-4.975-0.952-6.867-2.847L405.494,91.8c-3.799-3.798-3.799-9.938,0-13.736
					c3.798-3.798,9.938-3.798,13.734,0l116.775,116.775c3.799,3.798,3.799,9.948,0,13.736
					C534.111,210.479,531.634,211.432,529.146,211.432z"/>
			</g>
			<g>
				<path fill="#7C388C" d="M405.494,211.432c-2.487,0-4.976-0.952-6.868-2.847c-3.799-3.798-3.799-9.947,0-13.736L515.411,78.064
					c3.798-3.798,9.938-3.798,13.735,0c3.799,3.798,3.799,9.938,0,13.736L412.361,208.585
					C410.468,210.479,407.98,211.432,405.494,211.432z"/>
			</g>
			<g>
				<path fill="#7C388C" d="M242.857,607.143H48.571C21.789,607.143,0,585.354,0,558.571V364.286
					c0-26.782,21.789-48.572,48.571-48.572h194.286c26.783,0,48.572,21.79,48.572,48.572v194.285
					C291.429,585.354,269.64,607.143,242.857,607.143z M48.571,335.143c-16.067,0-29.143,13.076-29.143,29.145v194.285
					c0,16.066,13.075,29.144,29.143,29.144h194.286c16.068,0,29.143-13.076,29.143-29.144V364.286
					c0-16.067-13.075-29.144-29.143-29.144H48.571L48.571,335.143z"/>
			</g>
			<g>
				<path fill="#7C388C" d="M233.143,442H68c-5.372,0-9.714-4.342-9.714-9.714s4.342-9.715,9.714-9.715h165.143
					c5.372,0,9.714,4.343,9.714,9.715S238.515,442,233.143,442z"/>
			</g>
			<g>
				<path fill="#7C388C" d="M544,471.143H378.857c-5.372,0-9.716-4.342-9.716-9.714s4.344-9.715,9.716-9.715H544
					c5.372,0,9.714,4.343,9.714,9.715S549.372,471.143,544,471.143z"/>
			</g>
			<g>
				<path fill="#7C388C" d="M233.143,510H68c-5.372,0-9.714-4.342-9.714-9.714s4.342-9.715,9.714-9.715h165.143
					c5.372,0,9.714,4.343,9.714,9.715S238.515,510,233.143,510z"/>
			</g>
			<g>
				<path fill="#7C388C" d="M563.429,607.143H369.143c-26.781,0-48.57-21.788-48.57-48.57V364.286
					c0-26.782,21.789-48.572,48.57-48.572h194.286c26.782,0,48.571,21.79,48.571,48.572v194.285
					C612,585.354,590.211,607.143,563.429,607.143z M369.143,335.143c-16.066,0-29.143,13.076-29.143,29.145v194.285
					c0,16.066,13.075,29.144,29.143,29.144h194.286c16.067,0,29.144-13.076,29.144-29.144V364.286
					c0-16.067-13.075-29.144-29.144-29.144H369.143L369.143,335.143z"/>
			</g>
		</g>
	</g>
</g>
</svg>
